<svg xmlns="http://www.w3.org/2000/svg" xmlns:xlink="http://www.w3.org/1999/xlink" viewBox="0 0 857.46 983.36"><defs><style>.cls-1{fill:none;}.cls-2{clip-path:url(#clip-path);}.cls-3{fill:#007d7d;}.cls-4{fill:#010101;}</style><clipPath id="clip-path" transform="translate(-60.01 24.46)"><path class="cls-1" d="M971.53,971.53H0V0H971.53Z"/></clipPath></defs><g id="Capa_2" data-name="Capa 2"><g id="Capa_1-2" data-name="Capa 1"><g class="cls-2"><path class="cls-3" d="M298.11,496a24.75,24.75,0,0,1,6.73-10.73l85.93-80.34a14.56,14.56,0,0,0-1.15-10c-2.91-5.62-14.8-19.57-62.2-27.69a24.72,24.72,0,0,1-15.15-39.79,77.59,77.59,0,0,1,18.28-15.92,161.63,161.63,0,0,0-42.5-8,24.73,24.73,0,0,1-18.45-39.39c1.56-2.11,16-21,43.33-35a135.68,135.68,0,0,1,40.63-13.29C249.86-23.94,249.85-23.95,249.85-23.95L60-4.82,289.69,534.27A237.14,237.14,0,0,1,298.11,496Z" transform="translate(-60.01 24.46)"/><path class="cls-4" d="M727.62-24.46,589.51,300.38C542.6,231.41,436,249.46,436,249.46c-.91-.36-1.83-.71-2.74-1.05h0c-88.92-33.53-136.18,30.37-136.18,30.37,69,4,103.41,41.28,103.41,41.28-41.09-2.56-61.3,22.79-61.3,22.79C451,362,419.34,419.11,419.34,419.11l-90,84.19c-27.68,89.14,8.38,193.29,55.12,279.48C438.75,883,507.53,958.9,507.53,958.9L807.89,249.47C766,313.72,674,280.26,674,280.26c87.83,15.08,135.09-42.17,156.64-81.32l12.68-29.8c-31.86,54-116.43,25.7-116.43,25.7,79.42,11.8,123.85-50.6,143.31-89a.43.43,0,0,1,0-.07l12-28.23c-37.11,55.16-102.7,34-102.7,34,77.32,6,123.63-84.67,135.12-110.27a1.39,1.39,0,0,0,.06-.13l2.74-6.43,0-.07v0ZM483.23,288c-6.48-1.71-12.9-1.3-19.35.22a16,16,0,0,1-4.26.29c-8.82-.33-12.83-5.93-10.74-14.55,7,1.35,14,2.43,20.87,4.15a73.54,73.54,0,0,1,12.37,4.83c1.64.74,2.93,2.26,4.23,3.31C485.8,288.42,484.47,288.28,483.23,288Z" transform="translate(-60.01 24.46)"/></g></g></g></svg>