<svg xmlns="http://www.w3.org/2000/svg" xmlns:xlink="http://www.w3.org/1999/xlink" viewBox="0 0 908.45 143.2"><defs><style>.cls-1{fill:url(#Degradado_sin_nombre);}.cls-2{fill:#1d1d1b;}.cls-3{fill:url(#Degradado_sin_nombre_2);}</style><radialGradient id="Degradado_sin_nombre" cx="71.94" cy="61.89" r="71.67" gradientTransform="matrix(1, 0, 0, -1, 0, 133.32)" gradientUnits="userSpaceOnUse"><stop offset="0" stop-color="#6ca9dc"/><stop offset="0.12" stop-color="#6aa6d8"/><stop offset="0.23" stop-color="#639ccd"/><stop offset="0.34" stop-color="#588cb9"/><stop offset="0.45" stop-color="#48759e"/><stop offset="0.55" stop-color="#33597c"/><stop offset="0.58" stop-color="#2e5173"/><stop offset="1" stop-color="#132537"/></radialGradient><linearGradient id="Degradado_sin_nombre_2" x1="224.14" y1="133.14" x2="203.27" y2="107.29" gradientTransform="matrix(1, 0, 0, -1, 0, 133.32)" gradientUnits="userSpaceOnUse"><stop offset="0" stop-color="#2e5173"/><stop offset="0.18" stop-color="#2b4b6b"/><stop offset="0.46" stop-color="#223c55"/><stop offset="0.8" stop-color="#132232"/><stop offset="1" stop-color="#09111a"/></linearGradient></defs><g id="Capa_2" data-name="Capa 2"><g id="Capa_1-2" data-name="Capa 1"><path class="cls-1" d="M72.16,90.66,44.43.06H99.62ZM56.74,139.51,8.46,0H0V63.71Zm-3.5-1.1L0,67.27V111Zm2.93,3.91L0,113.35V142.8H56.55Zm87.71-78.58V0h-8.46L87.17,139.48Zm0,47.24V67.27l-53.2,71.11ZM87.33,142.83h56.55V113.35L87.71,142.29Z"/><path class="cls-2" d="M197.84,1.21l16.49,57.86,16.5-57.86h16.62l-26.77,83.7H207.9L181.22,1.21Z"/><path class="cls-2" d="M271.68,1.21v83.7H255.82V1.21Z"/><path class="cls-2" d="M282,59.44h15q.86,6.91,4.43,9.76t10.62,2.85q13.46,0,13.46-11,0-5-2.67-7.58t-8.49-3.58l-7.88-1.33Q283.8,44.79,283.8,25.27q0-11.65,7.7-18.44T311.94,0q12.38,0,19.6,6.55T339.72,25H324.48Q324.12,19,321,16.17t-9.22-2.79q-6.18,0-9.34,2.85a10,10,0,0,0-3.15,7.82A8.9,8.9,0,0,0,302,31q2.79,2.55,8.73,3.64l8.86,1.57q21.58,3.89,21.59,23.54,0,12.61-8.07,19.29t-21.77,6.65q-13.47,0-21-6.73T282,59.44Z"/><path class="cls-2" d="M369.24,1.21v83.7H353.35V1.21Z"/><path class="cls-2" d="M383.19,33.35Q383.19,0,413.64,0q14,0,22.08,7.82t8.12,25.53V52.52q0,17.71-8.31,25.54t-22.38,7.82q-30,0-30-33.36ZM428,52.28V34.2q0-10.67-3.52-15.46T413.68,14q-7.65,0-11,4.67t-3.4,15.58V52.28q0,10.3,3.4,14.86t11,4.52q7.27,0,10.79-4.67T428,52.28Z"/><path class="cls-2" d="M518.45,84.91H502.56L471.75,32.66V84.94h-15.9V1.24h15.9l30.81,52.42V1.26h15.89Z"/><path class="cls-2" d="M559.45,33.35Q559.45,0,590.14,0,603.85,0,612,7.21t8.12,20v.85H604.21v-.85a12.93,12.93,0,0,0-3.7-9.46Q596.82,14,590,14q-7.65,0-11.1,4.73t-3.46,15.52V52.32q0,10.31,3.7,14.86t11.52,4.48q7.27,0,10.61-3.76t3.34-11.41v-4H589.78V39.39H620.1V53.7q0,32.16-30.2,32.15-30.45,0-30.45-33.36Z"/><path class="cls-2" d="M648,50.94v34H632.11V1.24h31.78q12.25,0,19.54,6.73t7.25,18.23a24.48,24.48,0,0,1-3.82,14,22,22,0,0,1-11,8.37l18.2,36.39H675.78l-15.89-34Zm15-13.22q5.58,0,8.67-3t3.09-8.55A10.77,10.77,0,0,0,671.61,18c-2.1-2-5-3-8.61-3H648V37.72Z"/><path class="cls-2" d="M701.38,33.35Q701.38,0,731.83,0q14,0,22.08,7.82T762,33.35V52.52q0,17.71-8.31,25.54t-22.38,7.82q-30,0-30-33.36Zm44.76,18.93V34.2q0-10.67-3.52-15.46T731.83,14q-7.65,0-11,4.67t-3.4,15.58V52.28q0,10.3,3.4,14.86t11,4.55q7.27,0,10.79-4.67T746.14,52.28Z"/><path class="cls-2" d="M779.14,72a28.14,28.14,0,0,1-3.88-14.74v-56h15.89V56.81q0,7.15,3.76,11.1t10.31,3.94q6.56,0,10.37-3.94t3.82-11.1V1.21h16v56A27.81,27.81,0,0,1,831.47,72a27,27,0,0,1-10.79,10.11,35,35,0,0,1-30.82,0A26.59,26.59,0,0,1,779.14,72Z"/><path class="cls-2" d="M908.45,27.53q0,11.65-7.34,18.62t-20.07,7H865.68V84.93H849.74V1.23H881q12.74,0,20.07,7T908.45,27.53Zm-15.89,0q0-6.06-3.21-9.28t-9-3.21H865.68V39.18h14.68q5.7,0,9-3T892.56,27.53Z"/><polygon class="cls-3" points="225.23 1.06 204.33 1.06 214.83 35.37 225.23 1.06"/><path class="cls-2" d="M347.49,122.26q0-13.29,12.23-13.29a12.58,12.58,0,0,1,8.7,2.9c2.15,1.93,3.22,4.65,3.23,8.17v.33h-6.33v-.29a5.53,5.53,0,0,0-1.47-4.06,5.61,5.61,0,0,0-4.18-1.49,5.09,5.09,0,0,0-4.42,1.88q-1.38,1.89-1.38,6.19v7.2c0,2.7.48,4.67,1.43,5.89a5.3,5.3,0,0,0,4.47,1.84,5.51,5.51,0,0,0,4.13-1.45,5.4,5.4,0,0,0,1.42-4v-.39h6.24V132c0,3.57-1.07,6.32-3.19,8.24s-5,2.87-8.75,2.87q-12.14,0-12.13-13.29Z"/><path class="cls-2" d="M386.15,122.26q0-13.29,12.13-13.29,5.57,0,8.8,3.12t3.24,10.17v7.63q0,7.06-3.31,10.18a12.51,12.51,0,0,1-8.92,3.11q-11.94,0-11.94-13.29ZM404,129.8v-7.2q0-4.26-1.4-6.16a5,5,0,0,0-4.31-1.91,5,5,0,0,0-4.39,1.86q-1.36,1.86-1.36,6.21v7.2q0,4.11,1.36,5.92a5.12,5.12,0,0,0,4.39,1.81,5,5,0,0,0,4.31-1.86c.93-1.24,1.39-3.2,1.4-5.87Z"/><path class="cls-2" d="M449.68,142.8h-6.33L431.08,122V142.8h-6.33V109.45h6.33l12.27,20.88V109.45h6.33Z"/><path class="cls-2" d="M463.19,132.66h6a5.69,5.69,0,0,0,1.77,3.89,6.72,6.72,0,0,0,4.22,1.13q5.37,0,5.37-4.39a4,4,0,0,0-1.07-3,6.11,6.11,0,0,0-3.38-1.43l-3.14-.53q-9-1.5-9-9.28a9.27,9.27,0,0,1,3-7.39,11.84,11.84,0,0,1,8.15-2.71,11.18,11.18,0,0,1,7.8,2.61,10.68,10.68,0,0,1,3.26,7.34H480.1a4.83,4.83,0,0,0-1.4-3.52,6.59,6.59,0,0,0-7.39,0,4,4,0,0,0-1.26,3.12,3.52,3.52,0,0,0,1.11,2.75,7.08,7.08,0,0,0,3.48,1.45l3.53.63q8.59,1.55,8.6,9.37a9.47,9.47,0,0,1-3.21,7.69c-2.14,1.77-5,2.66-8.68,2.66s-6.36-.9-8.36-2.69S463.42,136,463.19,132.66Z"/><path class="cls-2" d="M502.53,137.66a11.22,11.22,0,0,1-1.55-5.87V109.45h6.33v22.13a6.17,6.17,0,0,0,1.5,4.43,6.19,6.19,0,0,0,8.24,0,6.15,6.15,0,0,0,1.52-4.43V109.45H525v22.33a11,11,0,0,1-1.57,5.88,10.75,10.75,0,0,1-4.3,4,13.87,13.87,0,0,1-12.28,0A10.61,10.61,0,0,1,502.53,137.66Z"/><path class="cls-2" d="M546.68,109.45v27.84h14.6v5.51h-21V109.45Z"/><path class="cls-2" d="M582.13,115V142.8h-6.38V115h-8.51v-5.51h23.44V115Z"/><path class="cls-2" d="M601.56,122.26q0-13.29,12.12-13.29c3.71,0,6.65,1,8.8,3.12s3.22,5.47,3.2,10.17v7.63q0,7.06-3.31,10.18a12.51,12.51,0,0,1-8.92,3.11q-11.94,0-11.93-13.29Zm17.83,7.54v-7.2q0-4.26-1.4-6.16a5,5,0,0,0-4.31-1.91,5,5,0,0,0-4.39,1.86c-.9,1.24-1.36,3.31-1.36,6.21v7.2c0,2.74.46,4.71,1.36,5.92a5.12,5.12,0,0,0,4.39,1.81,5,5,0,0,0,4.31-1.86q1.39-1.86,1.4-5.87Z"/><path class="cls-2" d="M646.5,129.27V142.8h-6.33V109.45h12.66a11,11,0,0,1,7.78,2.68,9.47,9.47,0,0,1,2.9,7.28A9.82,9.82,0,0,1,662,125a8.82,8.82,0,0,1-4.38,3.34l7.25,14.5h-7.29l-6.33-13.53Zm6-5.27a4.76,4.76,0,0,0,3.46-1.19,4.46,4.46,0,0,0,1.23-3.4,4.26,4.26,0,0,0-1.26-3.24A4.71,4.71,0,0,0,652.5,115h-6v9Z"/><path class="cls-2" d="M684.68,123.22h12.66v5.51H684.68v8.56h14.84v5.51H678.35V109.45h21.17V115H684.68Z"/><path class="cls-2" d="M712.08,132.66h6a5.64,5.64,0,0,0,1.76,3.89,6.67,6.67,0,0,0,4.23,1.13q5.35,0,5.36-4.39a4,4,0,0,0-1.06-3,6.24,6.24,0,0,0-3.38-1.43l-3.14-.53q-9-1.5-9-9.28a9.28,9.28,0,0,1,3-7.39A11.81,11.81,0,0,1,724,109a11.13,11.13,0,0,1,7.8,2.61,10.64,10.64,0,0,1,3.27,7.34H729a4.92,4.92,0,0,0-1.4-3.52,6.61,6.61,0,0,0-7.4,0A4,4,0,0,0,719,118.5a3.52,3.52,0,0,0,1.11,2.75,7.08,7.08,0,0,0,3.48,1.45l3.52.63q8.61,1.55,8.61,9.37c0,3.33-1.07,5.9-3.22,7.69s-5,2.68-8.67,2.66-6.36-.9-8.36-2.69A10.8,10.8,0,0,1,712.08,132.66Z"/></g></g></svg>