<svg id="Capa_1" data-name="Capa 1" xmlns="http://www.w3.org/2000/svg" xmlns:xlink="http://www.w3.org/1999/xlink" viewBox="0 0 1080 1080"><defs><style>.cls-1{fill:url(#Degradado_sin_nombre_32);}.cls-2{fill:#1d1d1b;}.cls-3{fill:url(#Degradado_sin_nombre_6);}</style><radialGradient id="Degradado_sin_nombre_32" cx="540.33" cy="413.79" r="342.58" gradientUnits="userSpaceOnUse"><stop offset="0" stop-color="#6ca9dc"/><stop offset="0.12" stop-color="#6aa6d8"/><stop offset="0.23" stop-color="#639ccd"/><stop offset="0.34" stop-color="#588cb9"/><stop offset="0.45" stop-color="#48759e"/><stop offset="0.55" stop-color="#33597c"/><stop offset="0.58" stop-color="#2e5173"/><stop offset="1" stop-color="#132537"/></radialGradient><linearGradient id="Degradado_sin_nombre_6" x1="206.76" y1="866.47" x2="185.15" y2="893.23" gradientUnits="userSpaceOnUse"><stop offset="0" stop-color="#2e5173"/><stop offset="0.07" stop-color="#2b4c6c"/><stop offset="0.7" stop-color="#132231"/><stop offset="1" stop-color="#09111a"/></linearGradient></defs><path class="cls-1" d="M541.31,505.66,408.77,72.59H672.54Zm-73.72,233.5L236.86,72.59H196.38V377Zm-16.71-5.29L196.38,394V602.78Zm14,18.69L196.38,614.26V755H466.7Zm8.2,2.43ZM884.28,377V72.59H843.8L613.07,739.16Zm0,225.82V394L629.77,733.87ZM614,755H884.28V614.26L615.79,752.56Zm-6.37,0h0Z"/><path class="cls-2" d="M179.53,867.53l17.07,59.91,17.08-59.91h17.21l-27.76,86.65H190l-27.63-86.65Z"/><path class="cls-2" d="M256,867.53v86.65H239.55V867.53Z"/><path class="cls-2" d="M266.68,927.81h15.57q.87,7.16,4.58,10.11t11,3q13.94,0,13.94-11.42c0-3.44-.92-6.05-2.76-7.85s-4.78-3-8.79-3.71L292,916.51q-23.48-3.88-23.48-24.11,0-12.06,8-19.09t21.16-7q12.81,0,20.29,6.78t8.47,19.09H310.63q-.37-6.28-3.64-9.17t-9.55-2.89q-6.4,0-9.67,2.95a10.39,10.39,0,0,0-3.26,8.1,9.2,9.2,0,0,0,2.89,7.16q2.88,2.64,9,3.77l9.17,1.63q22.35,4,22.35,24.36,0,13.07-8.35,20t-22.54,6.91q-13.95,0-21.73-7T266.68,927.81Z"/><path class="cls-2" d="M357,867.53v86.65H340.52V867.53Z"/><path class="cls-2" d="M371.41,900.81q0-34.53,31.52-34.53,14.44,0,22.85,8.1t8.42,26.43v19.84q0,18.35-8.6,26.44t-23.17,8.1q-31,0-31-34.54Zm46.34,19.59V901.69q0-11-3.64-16t-11.18-5q-7.92,0-11.43,4.84T388,901.69V920.4q0,10.68,3.52,15.39t11.43,4.71q7.53,0,11.18-4.84T417.75,920.4Z"/><path class="cls-2" d="M511.43,954.18H495l-31.9-54.12v54.12H446.63V867.53h16.45L495,921.79V867.53h16.45Z"/><path class="cls-2" d="M553.87,900.81q0-34.53,31.78-34.53,14.19,0,22.6,7.47t8.41,20.66v.88H600.21v-.88a13.38,13.38,0,0,0-3.83-9.8q-3.82-3.89-10.86-3.89-7.9,0-11.49,4.9t-3.58,16.07V920.4q0,10.68,3.83,15.39t11.87,4.71q7.53,0,11-3.9t3.45-11.8v-4.15H585.27V907.09h31.39v14.82q0,33.29-31.27,33.28-31.51,0-31.52-34.54Z"/><path class="cls-2" d="M645.55,919v35.16H629.1V867.53H662q12.68,0,20.22,7t7.53,18.9a25.43,25.43,0,0,1-4,14.45,22.83,22.83,0,0,1-11.37,8.66l18.84,37.67h-19L657.85,919Zm15.57-13.69q5.77,0,9-3.07t3.2-8.86A11.15,11.15,0,0,0,670,885q-3.27-3.13-8.92-3.14H645.55v23.48Z"/><path class="cls-2" d="M700.8,900.81q0-34.53,31.52-34.53,14.45,0,22.86,8.1t8.41,26.43v19.84q0,18.35-8.6,26.44t-23.17,8.1q-31,0-31-34.54Zm46.34,19.59V901.69q0-11-3.64-16t-11.18-5q-7.91,0-11.42,4.84t-3.52,16.13V920.4q0,10.68,3.52,15.39t11.42,4.71q7.54,0,11.18-4.84T747.14,920.4Z"/><path class="cls-2" d="M781.3,940.81a29.13,29.13,0,0,1-4-15.26v-58h16.45v57.52q0,7.41,3.89,11.49t10.68,4.08q6.78,0,10.74-4.08t4-11.49V867.53h16.58v58a28.8,28.8,0,0,1-4.08,15.26,27.94,27.94,0,0,1-11.18,10.42,36.14,36.14,0,0,1-31.9,0A27.5,27.5,0,0,1,781.3,940.81Z"/><path class="cls-2" d="M915.17,894.79q0,12-7.6,19.27t-20.78,7.22H870.84v32.9H854.39V867.53h32.4q13.19,0,20.78,7.29T915.17,894.79Zm-16.45,0q0-6.28-3.33-9.61T886,881.85H870.84v25H886q5.91,0,9.3-3.14T898.72,894.79Z"/><path class="cls-2" d="M395.73,986.58q0-9.65,8.88-9.65a9.11,9.11,0,0,1,6.32,2.11,7.53,7.53,0,0,1,2.35,5.93v.25h-4.6V985a4,4,0,0,0-1.07-2.94,4.05,4.05,0,0,0-3-1.09,3.7,3.7,0,0,0-3.21,1.37,7.74,7.74,0,0,0-1,4.49v5.23a7,7,0,0,0,1,4.29,3.84,3.84,0,0,0,3.24,1.33,4,4,0,0,0,3-1,4,4,0,0,0,1-2.88v-.28h4.53v.24a7.63,7.63,0,0,1-2.32,6,9.14,9.14,0,0,1-6.35,2.09q-8.82,0-8.81-9.66Z"/><path class="cls-2" d="M423.82,986.58q0-9.65,8.81-9.65a8.83,8.83,0,0,1,6.39,2.26c1.57,1.51,2.35,4,2.35,7.39v5.55q0,5.13-2.4,7.39a9.06,9.06,0,0,1-6.48,2.27q-8.67,0-8.67-9.66Zm12.95,5.48v-5.23a7.7,7.7,0,0,0-1-4.48,3.63,3.63,0,0,0-3.13-1.38,3.67,3.67,0,0,0-3.19,1.35,7.82,7.82,0,0,0-1,4.51v5.23a7.25,7.25,0,0,0,1,4.3,3.71,3.71,0,0,0,3.19,1.32,3.67,3.67,0,0,0,3.13-1.35A7.15,7.15,0,0,0,436.77,992.06Z"/><path class="cls-2" d="M470,1001.51h-4.6l-8.91-15.14v15.14h-4.6V977.28h4.6l8.91,15.17V977.28H470Z"/><path class="cls-2" d="M479.79,994.13h4.36a4.08,4.08,0,0,0,1.28,2.83,4.85,4.85,0,0,0,3.07.83q3.9,0,3.9-3.2a2.93,2.93,0,0,0-.77-2.19,4.54,4.54,0,0,0-2.46-1l-2.28-.39q-6.57-1.08-6.57-6.74a6.74,6.74,0,0,1,2.23-5.33,8.59,8.59,0,0,1,5.92-2,8.12,8.12,0,0,1,5.67,1.9,7.75,7.75,0,0,1,2.37,5.33h-4.43a3.55,3.55,0,0,0-1-2.56,3.86,3.86,0,0,0-2.66-.81,3.92,3.92,0,0,0-2.71.83,2.88,2.88,0,0,0-.91,2.26,2.57,2.57,0,0,0,.81,2,5.05,5.05,0,0,0,2.53,1.06l2.56.45q6.24,1.13,6.25,6.81a6.84,6.84,0,0,1-2.34,5.59,9.6,9.6,0,0,1-6.3,1.93,8.77,8.77,0,0,1-6.07-2A8,8,0,0,1,479.79,994.13Z"/><path class="cls-2" d="M508.38,997.77a8.16,8.16,0,0,1-1.13-4.27V977.28h4.6v16.08a4.49,4.49,0,0,0,1.09,3.21,3.94,3.94,0,0,0,3,1.14,4,4,0,0,0,3-1.14,4.41,4.41,0,0,0,1.1-3.21V977.28h4.64V993.5a8.07,8.07,0,0,1-1.14,4.27,7.78,7.78,0,0,1-3.13,2.91,10.06,10.06,0,0,1-8.91,0A7.66,7.66,0,0,1,508.38,997.77Z"/><path class="cls-2" d="M540.44,977.28V997.5H551v4h-15.2V977.28Z"/><path class="cls-2" d="M566.21,981.28v20.23h-4.63V981.28H555.4v-4h17v4Z"/><path class="cls-2" d="M580.33,986.58q0-9.65,8.81-9.65a8.83,8.83,0,0,1,6.39,2.26c1.57,1.51,2.36,4,2.36,7.39v5.55c0,3.42-.81,5.88-2.41,7.39a9.06,9.06,0,0,1-6.48,2.27q-8.67,0-8.67-9.66Zm13,5.48v-5.23a7.69,7.69,0,0,0-1-4.48,3.63,3.63,0,0,0-3.13-1.38,3.67,3.67,0,0,0-3.19,1.35,7.82,7.82,0,0,0-1,4.51v5.23a7.25,7.25,0,0,0,1,4.3,3.71,3.71,0,0,0,3.19,1.32,3.67,3.67,0,0,0,3.13-1.35A7.14,7.14,0,0,0,593.29,992.06Z"/><path class="cls-2" d="M613,991.68v9.83h-4.6V977.28h9.2a8,8,0,0,1,5.65,2,6.86,6.86,0,0,1,2.11,5.28,7.06,7.06,0,0,1-1.11,4,6.37,6.37,0,0,1-3.18,2.42l5.27,10.54H621l-4.6-9.83Zm4.35-3.83a3.49,3.49,0,0,0,2.51-.86,3.26,3.26,0,0,0,.9-2.48,3.12,3.12,0,0,0-.92-2.35,3.45,3.45,0,0,0-2.49-.88H613v6.57Z"/><path class="cls-2" d="M640.73,987.29h9.2v4h-9.2v6.21h10.78v4H636.13V977.28h15.38v4H640.73Z"/><path class="cls-2" d="M660.64,994.13H665a4.08,4.08,0,0,0,1.28,2.83,4.85,4.85,0,0,0,3.07.83q3.9,0,3.9-3.2a2.9,2.9,0,0,0-.78-2.19,4.47,4.47,0,0,0-2.45-1l-2.29-.39q-6.56-1.08-6.56-6.74a6.74,6.74,0,0,1,2.23-5.33,8.56,8.56,0,0,1,5.91-2,8.08,8.08,0,0,1,5.67,1.9,7.66,7.66,0,0,1,2.37,5.33h-4.42a3.55,3.55,0,0,0-1-2.56,4.81,4.81,0,0,0-5.37,0,2.88,2.88,0,0,0-.91,2.26,2.6,2.6,0,0,0,.8,2,5.14,5.14,0,0,0,2.53,1.06l2.57.45q6.24,1.13,6.25,6.81a6.84,6.84,0,0,1-2.34,5.59,9.64,9.64,0,0,1-6.3,1.93,8.81,8.81,0,0,1-6.08-2A8,8,0,0,1,660.64,994.13Z"/><polygon class="cls-3" points="207.88 867.37 186.25 867.37 197.12 902.9 207.88 867.37"/></svg>